<svg xmlns="http://www.w3.org/2000/svg" width="569.562" height="436.88" viewBox="0 0 569.562 436.88">
  <defs>
    <style>
      .cls-1 {
        fill: #8b5e24;
        fill-rule: evenodd;
      }
    </style>
  </defs>
  <path class="cls-1" d="M598.617,8853.69c0.17-.99.314-1.96,0.534-2.99,1.612,0.91,3.113,1.72,4.455,2.39,13.229,6.77,26.054,8.16,36.981.06,6.871-5.27,11.694-13.43,11.959-24.31,7.448,0.66,7.49,7.4,5.481,11.24a36.845,36.845,0,0,1-16.07,17.1c-12.136,6.34-26.268,4.43-40.7-2.1Zm-56.466-29.72c-0.019-.01-0.04-0.01-0.059-0.02l-38.851-20.44a138.816,138.816,0,0,1-22.445,15.37c-17.246,8.98-39.686,9.46-53.39,2.13-12.282-6.63-15.827-23.18,3.31-36.66,17.715-12.06,42.759-9.7,74.178,4.25a274.749,274.749,0,0,0,19.134-27.9c-41.813,10.17-71.106-5.91-80.084-22.7-12.759-23.65-2.361-52.51,24.1-70.24,28.112-18.92,80.318-9.94,63.545,35.47a54.968,54.968,0,0,1-27.166,29.33c-5.433,2.83-12.52,1.89-12.52-7.1,17.246-2.13,32.6-11.11,37.56-23.89,14.65-36.89-24.805-48.48-52.918-26.48-20.787,16.31-29.054,41.62-21.733,60.07,7.087,17.73,30,31.45,70.637,22.7l31.657-55.1c10.394-17.74,28.347-44.94,52.206-44.94,21.264,0,17.719,22.7,9.925,36.19-15.358,26.25-43.705,46.12-72.055,59.36a216.575,216.575,0,0,1-32.127,39.97s33.668,24.73,61.205,43.01c-0.506,1.62-1,3.23-1.4,4.84l-16.83-8.85c-0.011-.01-0.018-0.02-0.029-0.03Zm7.155-74.39c26.459-12.53,47.484-32.4,62.6-57.7,6.14-10.41,16.3-35.71-4.253-30.51-8.033,2.13-18.188,15.14-24.806,26.96Zm-53.863,49.9c-31.654-16.31-50.553-23.17-62.839-13-11.574,9.69-9.213,24.59,2.127,32.16,12.52,8.28,28.346,5.44,42.051-3.55A106.623,106.623,0,0,0,495.443,8799.48Zm361.284-57.18c-0.946-1.42-2.834-.24-1.892.71a12.259,12.259,0,0,1-1.415,14.66c-8.271,8.51-22.679,8.51-50.322.24l-35.434-10.65c-37.8-11.35-82.922-2.83-119.066,16.09-39.346-14.14-79.815,15.54-100.322,48.33,4.6,3.25,9.411,6.61,14.292,9.98,1.81-3.39,3.722-6.62,5.711-9.59,16.3-24.84,45.358-50.61,74.651-45.65-15.827,8.75-29.531,19.63-39.69,31.69-9.411,11.08-17.148,23.53-21.725,36.35a78.89,78.89,0,0,0-3.537,13.42,60.852,60.852,0,0,0-.251,19.76c7.8,45.17,67.091,30.27,90.716-26.01,11.339-26.49,12.047-61.25-12.286-74.97,23.391-14.19,50.791-19.16,84.1-11.83l17.719,4.02c-12.993,10.41-23.386,24.84-35.437,45.88l-10.159,17.98c-23.621,41.62-40.867,72.6-81.265,88.21-14.411,5.44-29.765,8.75-43.231,7.33-44.741-4.7-45.188-47.44-31.963-81.98l-15.85-8.34c-16.645,41.7-6.543,94.11,55.373,94.11,12.285,0,25.512-3.55,37.559-7.81,42.763-15.13,72.763-46.11,96.622-88.21l3.78-7.33c10.871,4.02,27.4,8.98,37.091,7.56,7.087-1.18,10.394-5.43,14.173-14.89-9.447,2.83-22.679,5.2-48.9,3.07l14.646-26.72c6.141-11.59,11.574-20.82,17.008-26.73l13.939,3.08c7.8,1.65,28.823,5.67,39.451,5.67,13.7,0,27.4-2.36,34.257-10.64C859.326,8753.89,859.56,8746.79,856.727,8742.3ZM665.37,8840.45c-17.245,43.27-68.036,70-72.051,28.14a56.764,56.764,0,0,1,.362-12.45,86.1,86.1,0,0,1,2.562-12.33,117.921,117.921,0,0,1,18.336-37.42c11.105-15.14,23.625-27.91,37.8-37.37C677.894,8779.9,674.822,8817.27,665.37,8840.45Zm213.784,35.29c-0.885-3.01-2.9-5.89-5.873-6.9-3.179-1.08-8.178-2.08-12.8-.68s-8.611,5.38-9.085,10.19a5.822,5.822,0,0,0,.886,4.05c1.419,1.92,4.117,2.19,6.467,2.62a2.256,2.256,0,0,1,.77.26,22.724,22.724,0,0,1-16.328,13.06c1.022-3.83,1.919-7.95,2.712-12.44,2.38-13.51,2.764-24.49,1.231-34.45,0.8-2.24,2.487-4.31,2.329-6.69a7.477,7.477,0,0,0-1.151-3.17,21.953,21.953,0,0,0-3.173-4.22c-0.984-1.04-2.138-2.13-2.216-3.55a9.214,9.214,0,0,1,.227-1.79,6.456,6.456,0,0,0-1.522-5.12,1.585,1.585,0,0,0-.89-0.59,1.675,1.675,0,0,0-1.062.32,18.9,18.9,0,0,0-5.47,4.81,8.918,8.918,0,0,0-1.783,3.46,10.787,10.787,0,0,0,.032,3.75c0.466,3.38,1.436,7.06,4.269,8.96,1.707,1.14,3.818,1.44,5.782,2.03a8.05,8.05,0,0,1,3.048,1.56c1.373,8.55,1.288,17.87-.293,28.96a23,23,0,0,0-4.633-6.64c-0.334-.35-0.673-0.71-1.012-1.07-2.06-2.17-4.188-4.41-5.392-7.13l-0.113.05a12.272,12.272,0,0,0-1.427-7.39c-1.111-2.31-2.546-4.48-3.442-6.9a15.556,15.556,0,0,0-1.419-3.35,10.56,10.56,0,0,0-2.414-2.34c-1.807-1.42-3.9-2.92-6.179-2.59a6.839,6.839,0,0,0-4.111,2.71,14.465,14.465,0,0,0-3.357,9.09,11.937,11.937,0,0,0,3.832,8.8c2.511,2.25,5.9,3.18,9.18,3.95a12.908,12.908,0,0,0,5.58.42,7.586,7.586,0,0,0,3.16-1.62,28.606,28.606,0,0,0,5.361,7c0.338,0.36.674,0.72,1.006,1.07,2.14,2.3,4.367,5.07,5.017,8.28-0.163,1.03-.316,2.06-0.5,3.12-1.991,11.29-4.65,20.19-8.3,27.88a20.826,20.826,0,0,0-5.229-8.7,7.8,7.8,0,0,0,2.312-.23,3.348,3.348,0,0,0,2.229-1.77,5.028,5.028,0,0,0,.278-1.56,11.809,11.809,0,0,0-.3-4.62,10.288,10.288,0,0,0-2.7-3.82,6.751,6.751,0,0,0-3.264-2.11,9.03,9.03,0,0,1-2.085-.39c-0.583-.27-1.007-0.81-1.593-1.09a3.258,3.258,0,0,0-3.431.88c-0.928.85-1.586,1.95-2.531,2.78a6.105,6.105,0,0,1-2.957,1.42,1.093,1.093,0,0,0-.8.37,0.968,0.968,0,0,0-.089.57,17.217,17.217,0,0,0,2.852,10.47,9.424,9.424,0,0,0,2.138,2.77,9.728,9.728,0,0,0,3.232,1.44,5.4,5.4,0,0,0,3.066.3,5.2,5.2,0,0,0,2.6-2.41,3.605,3.605,0,0,0,.645-1.43,1.6,1.6,0,0,0-.09-0.63,20.534,20.534,0,0,1,5.08,9.09c-0.007.01-.013,0.03-0.019,0.04a96.729,96.729,0,0,1-15.235,21.54l0.035-.19,0.677-4c0.03,0.02.065,0.02,0.094,0.04a4.4,4.4,0,0,0,.481.51,0.782,0.782,0,0,0,.684.01,1.588,1.588,0,0,0,.512-0.44,8.047,8.047,0,0,0,.818-1.1,2.813,2.813,0,0,0,.481-1.15,3.414,3.414,0,0,0-.134-1.16,6.65,6.65,0,0,0-1.509-3.37,3.762,3.762,0,0,0-1.162-.79,2.122,2.122,0,0,0-2.382.23,2.384,2.384,0,0,0-1.6-.33,1.845,1.845,0,0,0-1.071,1.4c-0.233.8-.4,1.62-0.565,2.43-0.041.21-.088,0.42-0.128,0.64a3.336,3.336,0,0,0-.022,1.84,3.471,3.471,0,0,0,.444.79,3.569,3.569,0,0,0,1.1,1.14,3.5,3.5,0,0,0,2.283.23,1.835,1.835,0,0,0,.521-0.16l-0.52,3.06a9.339,9.339,0,0,1-.57,2.05c-0.785.84-1.571,1.67-2.4,2.52a159.436,159.436,0,0,1-30.845,24.66,21.423,21.423,0,0,1,.346-11.55,3.366,3.366,0,0,1,.891.15c1.179,0.43,2.113,1.43,3.343,1.7,1.926,0.43,3.707-1.06,5.081-2.48,3.938-4.08,7.552-8.58,9.808-13.78s3.057-11.18,1.329-16.59a14.557,14.557,0,0,0-3.968-6.42,12.436,12.436,0,0,0-10.487-2.85,7.233,7.233,0,0,0-2.515.92,18.226,18.226,0,0,0-1.971,1.72c-1.483,1.33-3.751,2.24-5.426,1.17-0.468-.31-0.842-0.74-1.292-1.07-1.555-1.13-3.7-.84-5.558-0.33a15.967,15.967,0,0,0-3.735,1.48,13.823,13.823,0,0,0-6.067,8.68,29.764,29.764,0,0,0-.314,10.81c0.437,3.72,1.209,7.52,3.3,10.62,3.088,4.58,8.605,6.94,13.811,8.15a3.852,3.852,0,0,1,2.7-1.83,22.476,22.476,0,0,0-.209,12.07c-15.871,9.53-32.852,15.7-49.889,17.9l0.194,1.52a126.435,126.435,0,0,0,37.1-10.98,22.9,22.9,0,0,1,16.67,2.95c-1.1,2.01-4.439,2.87-6.072,5.03a6.2,6.2,0,0,0-.8,5.35,11.485,11.485,0,0,0,2.924,4.7,19.711,19.711,0,0,0,13.752,6.1,18.036,18.036,0,0,0,13.708-6,4.083,4.083,0,0,0,1.291-3.06c-0.165-1.17-1.2-2.03-1.612-3.15-0.819-2.23,1.047-4.58,1-6.96-0.053-2.67-2.42-4.65-4.673-6.07-3.774-2.4-8.422-4.36-12.609-2.79-2.7,1-4.675,3.29-6.528,5.5a2.7,2.7,0,0,1-.068.36,23.912,23.912,0,0,0-14.039-3.38,153.242,153.242,0,0,0,29.082-18.86,41.518,41.518,0,0,1,13.822-1.22c-0.148,1.72-.789,3.95.183,5.89a9.568,9.568,0,0,0,3.107,3.22c4.676,3.42,10.508,6.05,16.143,4.73a23.681,23.681,0,0,0,7.7-3.88,13.406,13.406,0,0,0,4.218-3.92c1.263-2.13,1.31-4.74,1.229-7.22-0.115-3.49-.5-7.25-2.782-9.9-2.028-2.36-5.18-3.4-8.231-3.98-3.445-.66-7.246-0.82-10.217,1.05-2.195,1.38-3.748,3.75-6.17,4.66-0.705.27-1.457,0.4-2.148,0.7-2.634,1.18-3.544,4.59-3.044,7.43,0.012,0.06.006,0.13,0.013,0.2a41.848,41.848,0,0,0-12.131.8c4.034-3.4,7.963-7.01,11.737-10.88a128.162,128.162,0,0,0,11.892-13.88,45.406,45.406,0,0,1,16.108-3.81c0.915,2.85,5.471,4.27,8.616,5.71,1.669,0.77,3.55,1.56,5.29.96,0.882-.3,1.62-0.92,2.5-1.24a15.1,15.1,0,0,1,2.685-.46,7.874,7.874,0,0,0,6.324-7.35,6.685,6.685,0,0,0-.285-2.12,6,6,0,0,0-6.288-4.02c0.868-1.62,1.7-3.52.76-4.95-0.837-1.28-2.636-1.44-4.158-1.32a19.175,19.175,0,0,0-10.683,3.88,12.758,12.758,0,0,0-4.953,9.9,46.511,46.511,0,0,0-14.816,3.29,83.042,83.042,0,0,0,6.462-10.72,88.545,88.545,0,0,0,6.063-16.12,23.384,23.384,0,0,0,17.125-12.81c-0.077.52-.282,1.09-0.4,1.59-0.612,2.7,2.114,5.01,4.741,5.86,3.256,1.06,7.052.92,9.836-1.08a12.018,12.018,0,0,0,3.464-4.2A17.606,17.606,0,0,0,879.154,8875.74ZM421.8,8612.53c-3.089-4.58-8.605-6.94-13.813-8.15a3.845,3.845,0,0,1-2.7,1.83,22.486,22.486,0,0,0,.208-12.07c15.872-9.53,32.853-15.7,49.89-17.89l-0.194-1.52a126.1,126.1,0,0,0-37.105,10.97,22.9,22.9,0,0,1-16.669-2.95c1.1-2.01,4.439-2.87,6.07-5.03a6.184,6.184,0,0,0,.8-5.34,11.522,11.522,0,0,0-2.925-4.71,19.754,19.754,0,0,0-13.751-6.1,18.029,18.029,0,0,0-13.707,6,4.085,4.085,0,0,0-1.293,3.06c0.166,1.17,1.2,2.03,1.613,3.15,0.819,2.23-1.047,4.58-1,6.96,0.053,2.67,2.418,4.65,4.673,6.08,3.772,2.39,8.42,4.35,12.609,2.79,2.7-1.01,4.673-3.3,6.528-5.51a2.282,2.282,0,0,1,.068-0.35,24.056,24.056,0,0,0,14.037,3.38,152.29,152.29,0,0,0-29.08,18.86,41.785,41.785,0,0,1-13.823,1.21c0.149-1.72.79-3.95-.183-5.89a9.667,9.667,0,0,0-3.106-3.22c-4.676-3.42-10.509-6.05-16.143-4.73a23.672,23.672,0,0,0-7.7,3.88,13.423,13.423,0,0,0-4.22,3.92c-1.262,2.13-1.309,4.74-1.227,7.22,0.115,3.49.5,7.25,2.781,9.9,2.029,2.36,5.181,3.4,8.23,3.98,3.445,0.66,7.248.82,10.217-1.05,2.2-1.38,3.75-3.75,6.171-4.66,0.706-.27,1.458-0.4,2.148-0.7,2.633-1.17,3.545-4.59,3.045-7.43-0.012-.06-0.007-0.13-0.015-0.2a41.857,41.857,0,0,0,12.133-.8c-4.034,3.4-7.963,7.02-11.737,10.88a128.192,128.192,0,0,0-11.894,13.88,45.386,45.386,0,0,1-16.108,3.81c-0.913-2.85-5.469-4.27-8.615-5.71-1.669-.77-3.549-1.56-5.29-0.96-0.881.3-1.619,0.92-2.494,1.24a15.145,15.145,0,0,1-2.686.46,7.885,7.885,0,0,0-6.325,7.35,6.648,6.648,0,0,0,.286,2.12,6,6,0,0,0,6.288,4.02c-0.868,1.62-1.7,3.53-.762,4.96,0.839,1.27,2.637,1.43,4.16,1.32a19.239,19.239,0,0,0,10.681-3.88,12.792,12.792,0,0,0,4.955-9.91,46.768,46.768,0,0,0,14.816-3.28,82.3,82.3,0,0,0-6.464,10.71,89.259,89.259,0,0,0-6.062,16.12,23.409,23.409,0,0,0-17.124,12.81c0.077-.52.282-1.09,0.4-1.59,0.611-2.7-2.113-5.01-4.74-5.86-3.256-1.05-7.053-.91-9.837,1.08a12.015,12.015,0,0,0-3.463,4.2,17.606,17.606,0,0,0-1.5,13.06c0.886,3.01,2.9,5.89,5.872,6.91,3.181,1.08,8.18,2.07,12.8.67s8.611-5.38,9.085-10.19a5.822,5.822,0,0,0-.886-4.05c-1.419-1.92-4.117-2.19-6.468-2.62a2.063,2.063,0,0,1-.769-0.26,22.742,22.742,0,0,1,16.328-13.06c-1.022,3.83-1.92,7.95-2.712,12.44-2.381,13.51-2.764,24.49-1.231,34.45-0.8,2.24-2.487,4.31-2.329,6.69a7.489,7.489,0,0,0,1.15,3.17,22,22,0,0,0,3.174,4.22c0.983,1.04,2.138,2.13,2.214,3.55a9.138,9.138,0,0,1-.227,1.79,6.447,6.447,0,0,0,1.524,5.12,1.538,1.538,0,0,0,.888.59,1.677,1.677,0,0,0,1.064-.32,18.867,18.867,0,0,0,5.468-4.81,8.882,8.882,0,0,0,1.785-3.46,10.836,10.836,0,0,0-.032-3.75c-0.466-3.38-1.438-7.06-4.271-8.96-1.707-1.14-3.818-1.44-5.782-2.03a8.068,8.068,0,0,1-3.047-1.56c-1.372-8.54-1.287-17.87.294-28.96a23.015,23.015,0,0,0,4.632,6.64c0.335,0.35.673,0.71,1.013,1.07,2.059,2.17,4.188,4.41,5.392,7.13l0.112-.05a12.251,12.251,0,0,0,1.428,7.39c1.111,2.32,2.546,4.49,3.442,6.9a15.553,15.553,0,0,0,1.418,3.35,10.6,10.6,0,0,0,2.413,2.34c1.809,1.42,3.9,2.92,6.181,2.6a6.893,6.893,0,0,0,4.11-2.72,14.432,14.432,0,0,0,3.357-9.09,11.936,11.936,0,0,0-3.831-8.8c-2.511-2.25-5.9-3.18-9.181-3.95a12.9,12.9,0,0,0-5.579-.42,7.574,7.574,0,0,0-3.16,1.62,28.614,28.614,0,0,0-5.363-7c-0.336-.36-0.674-0.72-1.006-1.07-2.139-2.3-4.365-5.07-5.015-8.28,0.163-1.03.316-2.05,0.5-3.12,1.991-11.29,4.65-20.18,8.3-27.88a20.823,20.823,0,0,0,5.227,8.7,7.8,7.8,0,0,0-2.311.23,3.35,3.35,0,0,0-2.229,1.77,5.028,5.028,0,0,0-.278,1.56,11.809,11.809,0,0,0,.3,4.62,10.4,10.4,0,0,0,2.7,3.83,6.724,6.724,0,0,0,3.263,2.1,9.049,9.049,0,0,1,2.086.39c0.583,0.27,1.007.81,1.592,1.09a3.259,3.259,0,0,0,3.432-.88c0.926-.85,1.586-1.95,2.529-2.78a6.118,6.118,0,0,1,2.957-1.42,1.123,1.123,0,0,0,.8-0.36,1,1,0,0,0,.089-0.58,17.256,17.256,0,0,0-2.852-10.47,7.151,7.151,0,0,0-5.37-4.2,5.321,5.321,0,0,0-3.066-.31,5.232,5.232,0,0,0-2.6,2.41,3.619,3.619,0,0,0-.645,1.43,1.566,1.566,0,0,0,.09.63,20.5,20.5,0,0,1-5.079-9.09,0.352,0.352,0,0,1,.018-0.04,96.729,96.729,0,0,1,15.235-21.54c-0.011.06-.024,0.13-0.035,0.2l-0.677,3.99c-0.03-.02-0.067-0.02-0.094-0.04a5.385,5.385,0,0,0-.481-0.51,0.782,0.782,0,0,0-.684-0.01,1.737,1.737,0,0,0-.513.44,8.04,8.04,0,0,0-.817,1.1,2.842,2.842,0,0,0-.481,1.15,3.386,3.386,0,0,0,.134,1.16,6.616,6.616,0,0,0,1.509,3.37,3.738,3.738,0,0,0,1.162.79,2.122,2.122,0,0,0,2.382-.23,2.384,2.384,0,0,0,1.6.33,1.845,1.845,0,0,0,1.071-1.4c0.233-.8.4-1.61,0.565-2.43,0.04-.21.086-0.42,0.128-0.64a3.355,3.355,0,0,0,.022-1.84,3.471,3.471,0,0,0-.444-0.79,2.814,2.814,0,0,0-3.378-1.37,1.842,1.842,0,0,0-.522.16l0.519-3.06a9.671,9.671,0,0,1,.571-2.05c0.784-.83,1.572-1.67,2.4-2.52a159.472,159.472,0,0,1,30.846-24.66,21.414,21.414,0,0,1-.347,11.55,3.352,3.352,0,0,1-.89-0.15c-1.179-.43-2.114-1.43-3.343-1.7-1.926-.42-3.707,1.07-5.081,2.48-3.938,4.08-7.552,8.58-9.808,13.78s-3.057,11.18-1.329,16.59a14.653,14.653,0,0,0,3.967,6.43,12.462,12.462,0,0,0,10.486,2.84,7.231,7.231,0,0,0,2.516-.92,17.934,17.934,0,0,0,1.97-1.72c1.485-1.33,3.752-2.24,5.426-1.17,0.468,0.31.843,0.74,1.293,1.07,1.555,1.13,3.706.84,5.559,0.33a15.967,15.967,0,0,0,3.735-1.48,13.823,13.823,0,0,0,6.067-8.68,29.764,29.764,0,0,0,.314-10.81C424.666,8619.43,423.894,8615.63,421.8,8612.53Z" transform="translate(-310.219 -8561.56)"/>
</svg>
